<?xml version="1.0" encoding="UTF-8"?>
<svg xmlns="http://www.w3.org/2000/svg" xmlns:xlink="http://www.w3.org/1999/xlink" version="1.1" id="Layer_1" x="0px" y="0px" viewBox="0 0 2496 2496" style="enable-background:new 0 0 2496 2496;" xml:space="preserve">
<style type="text/css">
	.st0{fill:#F7931A;}
	.st1{fill:#FFFFFF;}
</style>
<g>
	<circle class="st0" cx="1248" cy="1248" r="1248"/>
	<path class="st1" d="M1747.9,969.6c-31.9-127.4-157.2-183.3-267-142.2l-54.5-218.6l-132.9,33.1l53,212.8   c-34.9,8.7-70.6,17.5-106.2,26.2l-53.5-214.4l-132.7,33.1l54.5,218.6c-28.9,7.2-57.2,14.3-85.1,21.9l-0.3-0.7l-183.2,45.7   l35.4,142.1c0,0,97.6-30.1,96.4-27.7c53.7-13.4,79.6,14.7,91.5,44.9l102.8,412.1c1.3,14.4-0.2,38.7-29.8,47.1   c1.7,1,-96.4,24.1-96.4,24.1l14.5,174.4l172.8-43.1c32.2-8,63.9-15.6,95-23.4l55.2,221.2l132.7-33.1l-54.5-218.9   c36.5-8.4,71.8-16.9,106.2-25.5l54.1,217.3l132.9-33.1l-55-220.7c228.9-78.4,378.9-189.5,336.1-398.7   C2049.8,1119.5,1944.3,1054.8,1747.9,969.6L1747.9,969.6z M1474.2,1312.8c51.2,205.4-315.7,297.3-431,323.4l-76.8-308.2   C1081.7,1302,1425.4,1115.9,1474.2,1312.8z M1326.9,855.2c46.6,187-260.7,266.9-362.3,290.1l-69.7-279.7   C996.6,842.5,1282.5,676.1,1326.9,855.2z"/>
</g>
</svg>
